<mxfile host="app.diagrams.net" agent="Mozilla/5.0 (Macintosh; Intel Mac OS X 10_15_7) AppleWebKit/537.36 (KHTML, like Gecko) Chrome/131.0.0.0 Safari/537.36" version="24.8.6">
  <diagram id="C5RBs43oDa-KdzZeNtuy" name="Page-1">
    <mxGraphModel dx="1434" dy="881" grid="1" gridSize="10" guides="1" tooltips="1" connect="1" arrows="1" fold="1" page="1" pageScale="1" pageWidth="827" pageHeight="1169" math="0" shadow="0">
      <root>
        <mxCell id="WIyWlLk6GJQsqaUBKTNV-0" />
        <mxCell id="WIyWlLk6GJQsqaUBKTNV-1" parent="WIyWlLk6GJQsqaUBKTNV-0" />
        <mxCell id="Xbszcy3RC4SYlAQT6yKl-26" value="" style="rounded=0;whiteSpace=wrap;html=1;" parent="WIyWlLk6GJQsqaUBKTNV-1" vertex="1">
          <mxGeometry x="370" y="950" width="980" height="250" as="geometry" />
        </mxCell>
        <mxCell id="HNseLsLBakEeqUfx-rle-89" style="edgeStyle=orthogonalEdgeStyle;rounded=0;orthogonalLoop=1;jettySize=auto;html=1;entryX=0;entryY=0.5;entryDx=0;entryDy=0;" parent="WIyWlLk6GJQsqaUBKTNV-1" source="WIyWlLk6GJQsqaUBKTNV-3" target="HNseLsLBakEeqUfx-rle-88" edge="1">
          <mxGeometry relative="1" as="geometry">
            <mxPoint x="360" y="120" as="targetPoint" />
          </mxGeometry>
        </mxCell>
        <mxCell id="HNseLsLBakEeqUfx-rle-98" style="edgeStyle=orthogonalEdgeStyle;rounded=0;orthogonalLoop=1;jettySize=auto;html=1;entryX=0;entryY=0.5;entryDx=0;entryDy=0;" parent="WIyWlLk6GJQsqaUBKTNV-1" source="WIyWlLk6GJQsqaUBKTNV-3" target="lwHccidv2fWYTVkOevZk-39" edge="1">
          <mxGeometry relative="1" as="geometry" />
        </mxCell>
        <mxCell id="HNseLsLBakEeqUfx-rle-99" style="edgeStyle=orthogonalEdgeStyle;rounded=0;orthogonalLoop=1;jettySize=auto;html=1;entryX=0;entryY=0.5;entryDx=0;entryDy=0;" parent="WIyWlLk6GJQsqaUBKTNV-1" source="WIyWlLk6GJQsqaUBKTNV-3" target="Aem0WX8BvzpRNGFWT9OV-11" edge="1">
          <mxGeometry relative="1" as="geometry" />
        </mxCell>
        <mxCell id="WIyWlLk6GJQsqaUBKTNV-3" value="&lt;div style=&quot;line-height: 18px;&quot;&gt;GameFSM&lt;span style=&quot;font-family: Menlo, Monaco, &amp;quot;Courier New&amp;quot;, monospace; white-space: pre;&quot;&gt;:&lt;br&gt; FSMUpdateBase&amp;lt;GameStates&amp;gt;&lt;/span&gt;&lt;/div&gt;" style="rounded=1;whiteSpace=wrap;html=1;fontSize=12;glass=0;strokeWidth=1;shadow=0;" parent="WIyWlLk6GJQsqaUBKTNV-1" vertex="1">
          <mxGeometry x="10" y="100" width="240" height="40" as="geometry" />
        </mxCell>
        <mxCell id="lwHccidv2fWYTVkOevZk-2" value="&lt;div&gt;&lt;span style=&quot;background-color: initial;&quot;&gt;{ GameState.Preload, new Preload }&lt;br&gt;{ GameState.Lobby, new Lobby }&lt;/span&gt;&lt;br&gt;&lt;/div&gt;&lt;div&gt;{ States.PlayVocabulary, new VocabularyState }&lt;/div&gt;" style="rounded=0;whiteSpace=wrap;html=1;align=left;" parent="WIyWlLk6GJQsqaUBKTNV-1" vertex="1">
          <mxGeometry x="10" y="140" width="280" height="50" as="geometry" />
        </mxCell>
        <mxCell id="lwHccidv2fWYTVkOevZk-38" style="edgeStyle=orthogonalEdgeStyle;rounded=0;orthogonalLoop=1;jettySize=auto;html=1;entryX=0.5;entryY=0;entryDx=0;entryDy=0;exitX=0.375;exitY=1;exitDx=0;exitDy=0;exitPerimeter=0;" parent="WIyWlLk6GJQsqaUBKTNV-1" source="C5VVjoUgW46I6b7N3y8o-11" target="Aem0WX8BvzpRNGFWT9OV-1" edge="1">
          <mxGeometry relative="1" as="geometry">
            <mxPoint x="545" y="440" as="targetPoint" />
          </mxGeometry>
        </mxCell>
        <mxCell id="Xbszcy3RC4SYlAQT6yKl-20" style="edgeStyle=orthogonalEdgeStyle;rounded=0;orthogonalLoop=1;jettySize=auto;html=1;" parent="WIyWlLk6GJQsqaUBKTNV-1" source="C5VVjoUgW46I6b7N3y8o-11" target="Xbszcy3RC4SYlAQT6yKl-19" edge="1">
          <mxGeometry relative="1" as="geometry" />
        </mxCell>
        <mxCell id="lwHccidv2fWYTVkOevZk-39" value="&lt;div&gt;LobbyState&lt;/div&gt;" style="rounded=1;whiteSpace=wrap;html=1;glass=0;strokeWidth=1;shadow=0;fillColor=#d5e8d4;strokeColor=#82b366;" parent="WIyWlLk6GJQsqaUBKTNV-1" vertex="1">
          <mxGeometry x="360" y="410" width="120" height="20" as="geometry" />
        </mxCell>
        <mxCell id="Xbszcy3RC4SYlAQT6yKl-25" style="edgeStyle=orthogonalEdgeStyle;rounded=0;orthogonalLoop=1;jettySize=auto;html=1;" parent="WIyWlLk6GJQsqaUBKTNV-1" source="Aem0WX8BvzpRNGFWT9OV-1" target="Aem0WX8BvzpRNGFWT9OV-8" edge="1">
          <mxGeometry relative="1" as="geometry" />
        </mxCell>
        <mxCell id="Aem0WX8BvzpRNGFWT9OV-1" value="&lt;div style=&quot;line-height: 18px;&quot;&gt;BookTabController&lt;/div&gt;" style="rounded=1;whiteSpace=wrap;html=1;fontSize=12;glass=0;strokeWidth=1;shadow=0;" parent="WIyWlLk6GJQsqaUBKTNV-1" vertex="1">
          <mxGeometry x="425.63" y="490" width="139" height="20" as="geometry" />
        </mxCell>
        <mxCell id="Xbszcy3RC4SYlAQT6yKl-21" style="edgeStyle=orthogonalEdgeStyle;rounded=0;orthogonalLoop=1;jettySize=auto;html=1;exitX=0.5;exitY=1;exitDx=0;exitDy=0;" parent="WIyWlLk6GJQsqaUBKTNV-1" source="Aem0WX8BvzpRNGFWT9OV-8" target="Xbszcy3RC4SYlAQT6yKl-18" edge="1">
          <mxGeometry relative="1" as="geometry" />
        </mxCell>
        <mxCell id="Aem0WX8BvzpRNGFWT9OV-8" value="on lesson click&lt;div&gt;gameBus.NextState = Vocabulary&lt;br&gt;gameBus.NextLesson = click index&lt;br&gt;gameBus.PreloadFor = LessonConfig&lt;/div&gt;" style="rounded=0;whiteSpace=wrap;html=1;align=left;" parent="WIyWlLk6GJQsqaUBKTNV-1" vertex="1">
          <mxGeometry x="370" y="540" width="220.63" height="100" as="geometry" />
        </mxCell>
        <mxCell id="Aem0WX8BvzpRNGFWT9OV-11" value="VocabularyState" style="rounded=1;whiteSpace=wrap;html=1;glass=0;strokeWidth=1;shadow=0;fillColor=#d5e8d4;strokeColor=#82b366;" parent="WIyWlLk6GJQsqaUBKTNV-1" vertex="1">
          <mxGeometry x="360" y="910" width="120" height="20" as="geometry" />
        </mxCell>
        <mxCell id="HNseLsLBakEeqUfx-rle-73" style="edgeStyle=orthogonalEdgeStyle;rounded=0;orthogonalLoop=1;jettySize=auto;html=1;entryX=0;entryY=0.5;entryDx=0;entryDy=0;" parent="WIyWlLk6GJQsqaUBKTNV-1" source="HNseLsLBakEeqUfx-rle-0" target="HNseLsLBakEeqUfx-rle-38" edge="1">
          <mxGeometry relative="1" as="geometry" />
        </mxCell>
        <mxCell id="HNseLsLBakEeqUfx-rle-0" value="&lt;div style=&quot;line-height: 18px;&quot;&gt;PlaySubFSM&lt;span style=&quot;font-family: Menlo, Monaco, &amp;quot;Courier New&amp;quot;, monospace; white-space: pre;&quot;&gt;: &lt;br&gt;StateMachineBase&amp;lt;LobbyStates&amp;gt;&lt;/span&gt;&lt;/div&gt;" style="rounded=1;whiteSpace=wrap;html=1;fontSize=12;glass=0;strokeWidth=1;shadow=0;" parent="WIyWlLk6GJQsqaUBKTNV-1" vertex="1">
          <mxGeometry x="425" y="1000" width="240" height="40" as="geometry" />
        </mxCell>
        <mxCell id="HNseLsLBakEeqUfx-rle-1" value="&lt;div&gt;{&amp;nbsp;&lt;span style=&quot;font-family: Menlo, Monaco, &amp;quot;Courier New&amp;quot;, monospace; white-space: pre;&quot;&gt;PlaySubStates&lt;/span&gt;.Preload, new PreloadSubState }&lt;br&gt;&lt;/div&gt;&lt;div&gt;{&amp;nbsp;&lt;span style=&quot;font-family: Menlo, Monaco, &amp;quot;Courier New&amp;quot;, monospace; white-space: pre;&quot;&gt;PlaySubStates&lt;/span&gt;.ReadNext, new ReadNextSubState }&lt;br&gt;&lt;/div&gt;&lt;div&gt;&lt;span style=&quot;background-color: initial;&quot;&gt;{&amp;nbsp;&lt;/span&gt;&lt;span style=&quot;background-color: initial; font-family: Menlo, Monaco, &amp;quot;Courier New&amp;quot;, monospace; white-space: pre;&quot;&gt;Play&lt;/span&gt;&lt;span style=&quot;background-color: initial; font-family: Menlo, Monaco, &amp;quot;Courier New&amp;quot;, monospace; white-space: pre;&quot;&gt;SubStates&lt;/span&gt;&lt;span style=&quot;background-color: initial;&quot;&gt;.DemonstrationWord, new PlaySubState }&lt;br&gt;&lt;/span&gt;&lt;div&gt;&lt;span style=&quot;background-color: initial;&quot;&gt;{&amp;nbsp;&lt;/span&gt;&lt;span style=&quot;background-color: initial; font-family: Menlo, Monaco, &amp;quot;Courier New&amp;quot;, monospace; white-space: pre;&quot;&gt;PlaySubStates&lt;/span&gt;&lt;span style=&quot;background-color: initial;&quot;&gt;.SelectWords, new MatchWordsSubState }&lt;/span&gt;&lt;span style=&quot;background-color: initial;&quot;&gt;&lt;br&gt;{&amp;nbsp;&lt;/span&gt;&lt;span style=&quot;background-color: initial; font-family: Menlo, Monaco, &amp;quot;Courier New&amp;quot;, monospace; white-space: pre;&quot;&gt;PlaySubStates&lt;/span&gt;&lt;span style=&quot;background-color: initial;&quot;&gt;.MatchWords, new MatchWordsSubState }&lt;/span&gt;&lt;br&gt;&lt;/div&gt;&lt;/div&gt;&lt;div&gt;&lt;span style=&quot;background-color: initial;&quot;&gt;&lt;br&gt;&lt;/span&gt;&lt;/div&gt;" style="rounded=0;whiteSpace=wrap;html=1;align=left;" parent="WIyWlLk6GJQsqaUBKTNV-1" vertex="1">
          <mxGeometry x="429" y="1040" width="340" height="90" as="geometry" />
        </mxCell>
        <mxCell id="HNseLsLBakEeqUfx-rle-90" style="edgeStyle=orthogonalEdgeStyle;rounded=0;orthogonalLoop=1;jettySize=auto;html=1;" parent="WIyWlLk6GJQsqaUBKTNV-1" source="HNseLsLBakEeqUfx-rle-2" target="WIyWlLk6GJQsqaUBKTNV-3" edge="1">
          <mxGeometry relative="1" as="geometry" />
        </mxCell>
        <mxCell id="HNseLsLBakEeqUfx-rle-2" value="&lt;div&gt;Game&lt;/div&gt;" style="rounded=1;whiteSpace=wrap;html=1;glass=0;strokeWidth=1;shadow=0;fillColor=#d5e8d4;strokeColor=#82b366;" parent="WIyWlLk6GJQsqaUBKTNV-1" vertex="1">
          <mxGeometry x="70" y="10" width="120" height="20" as="geometry" />
        </mxCell>
        <mxCell id="HNseLsLBakEeqUfx-rle-68" value="MatchWords" style="swimlane;whiteSpace=wrap;html=1;startSize=23;" parent="WIyWlLk6GJQsqaUBKTNV-1" vertex="1" collapsed="1">
          <mxGeometry x="1009" y="1010" width="180" height="30" as="geometry">
            <mxRectangle x="960" y="450" width="660" height="395" as="alternateBounds" />
          </mxGeometry>
        </mxCell>
        <mxCell id="HNseLsLBakEeqUfx-rle-69" style="edgeStyle=orthogonalEdgeStyle;rounded=0;orthogonalLoop=1;jettySize=auto;html=1;exitX=1;exitY=0.75;exitDx=0;exitDy=0;" parent="HNseLsLBakEeqUfx-rle-68" source="HNseLsLBakEeqUfx-rle-70" edge="1">
          <mxGeometry relative="1" as="geometry">
            <Array as="points">
              <mxPoint x="210.5" y="45" />
            </Array>
            <mxPoint x="210.5" y="73.20000000000005" as="targetPoint" />
          </mxGeometry>
        </mxCell>
        <mxCell id="HNseLsLBakEeqUfx-rle-70" value="&lt;div&gt;LessonPreload&lt;/div&gt;" style="rounded=1;whiteSpace=wrap;html=1;glass=0;strokeWidth=1;shadow=0;fillColor=#d5e8d4;strokeColor=#82b366;" parent="HNseLsLBakEeqUfx-rle-68" vertex="1">
          <mxGeometry x="70.5" y="30" width="120" height="20" as="geometry" />
        </mxCell>
        <mxCell id="HNseLsLBakEeqUfx-rle-71" style="edgeStyle=orthogonalEdgeStyle;rounded=0;orthogonalLoop=1;jettySize=auto;html=1;exitX=1;exitY=0.5;exitDx=0;exitDy=0;" parent="HNseLsLBakEeqUfx-rle-68" source="HNseLsLBakEeqUfx-rle-72" edge="1">
          <mxGeometry relative="1" as="geometry">
            <mxPoint x="69.5" y="40" as="targetPoint" />
          </mxGeometry>
        </mxCell>
        <mxCell id="HNseLsLBakEeqUfx-rle-72" value="ReEnter" style="rounded=1;whiteSpace=wrap;html=1;glass=0;strokeWidth=1;shadow=0;fillColor=#d5e8d4;strokeColor=#82b366;" parent="HNseLsLBakEeqUfx-rle-68" vertex="1">
          <mxGeometry x="9.5" y="30" width="39" height="20" as="geometry" />
        </mxCell>
        <mxCell id="HNseLsLBakEeqUfx-rle-74" value="" style="edgeStyle=orthogonalEdgeStyle;rounded=0;orthogonalLoop=1;jettySize=auto;html=1;entryX=0;entryY=0.5;entryDx=0;entryDy=0;" parent="WIyWlLk6GJQsqaUBKTNV-1" source="HNseLsLBakEeqUfx-rle-0" target="HNseLsLBakEeqUfx-rle-38" edge="1">
          <mxGeometry relative="1" as="geometry">
            <mxPoint x="665" y="1020" as="sourcePoint" />
            <mxPoint x="969" y="1020" as="targetPoint" />
          </mxGeometry>
        </mxCell>
        <mxCell id="HNseLsLBakEeqUfx-rle-38" value="PlayLogicSubstate" style="swimlane;whiteSpace=wrap;html=1;" parent="WIyWlLk6GJQsqaUBKTNV-1" vertex="1" collapsed="1">
          <mxGeometry x="800" y="1005" width="180" height="30" as="geometry">
            <mxRectangle x="800" y="745" width="660" height="400" as="alternateBounds" />
          </mxGeometry>
        </mxCell>
        <mxCell id="HNseLsLBakEeqUfx-rle-43" style="edgeStyle=orthogonalEdgeStyle;rounded=0;orthogonalLoop=1;jettySize=auto;html=1;exitX=1;exitY=0.75;exitDx=0;exitDy=0;" parent="HNseLsLBakEeqUfx-rle-38" source="HNseLsLBakEeqUfx-rle-44" edge="1">
          <mxGeometry relative="1" as="geometry">
            <Array as="points">
              <mxPoint x="210.5" y="45" />
            </Array>
            <mxPoint x="210.5" y="73.20000000000005" as="targetPoint" />
          </mxGeometry>
        </mxCell>
        <mxCell id="HNseLsLBakEeqUfx-rle-44" value="&lt;div&gt;LessonPreload&lt;/div&gt;" style="rounded=1;whiteSpace=wrap;html=1;glass=0;strokeWidth=1;shadow=0;fillColor=#d5e8d4;strokeColor=#82b366;" parent="HNseLsLBakEeqUfx-rle-38" vertex="1">
          <mxGeometry x="70.5" y="30" width="120" height="20" as="geometry" />
        </mxCell>
        <mxCell id="HNseLsLBakEeqUfx-rle-53" style="edgeStyle=orthogonalEdgeStyle;rounded=0;orthogonalLoop=1;jettySize=auto;html=1;exitX=1;exitY=0.5;exitDx=0;exitDy=0;" parent="HNseLsLBakEeqUfx-rle-38" source="HNseLsLBakEeqUfx-rle-54" edge="1">
          <mxGeometry relative="1" as="geometry">
            <mxPoint x="69.5" y="40" as="targetPoint" />
          </mxGeometry>
        </mxCell>
        <mxCell id="HNseLsLBakEeqUfx-rle-54" value="ReEnter" style="rounded=1;whiteSpace=wrap;html=1;glass=0;strokeWidth=1;shadow=0;fillColor=#d5e8d4;strokeColor=#82b366;" parent="HNseLsLBakEeqUfx-rle-38" vertex="1">
          <mxGeometry x="9.5" y="30" width="39" height="20" as="geometry" />
        </mxCell>
        <mxCell id="HNseLsLBakEeqUfx-rle-81" style="edgeStyle=orthogonalEdgeStyle;rounded=0;orthogonalLoop=1;jettySize=auto;html=1;exitX=1;exitY=0.5;exitDx=0;exitDy=0;" parent="WIyWlLk6GJQsqaUBKTNV-1" source="Aem0WX8BvzpRNGFWT9OV-11" target="HNseLsLBakEeqUfx-rle-0" edge="1">
          <mxGeometry relative="1" as="geometry">
            <mxPoint x="559" y="870" as="targetPoint" />
            <mxPoint x="480" y="960" as="sourcePoint" />
          </mxGeometry>
        </mxCell>
        <mxCell id="HNseLsLBakEeqUfx-rle-82" value="SelectWord" style="swimlane;whiteSpace=wrap;html=1;startSize=23;" parent="WIyWlLk6GJQsqaUBKTNV-1" vertex="1" collapsed="1">
          <mxGeometry x="1210" y="1010" width="180" height="30" as="geometry">
            <mxRectangle x="960" y="480" width="660" height="400" as="alternateBounds" />
          </mxGeometry>
        </mxCell>
        <mxCell id="HNseLsLBakEeqUfx-rle-83" style="edgeStyle=orthogonalEdgeStyle;rounded=0;orthogonalLoop=1;jettySize=auto;html=1;exitX=1;exitY=0.75;exitDx=0;exitDy=0;" parent="HNseLsLBakEeqUfx-rle-82" source="HNseLsLBakEeqUfx-rle-84" edge="1">
          <mxGeometry relative="1" as="geometry">
            <Array as="points">
              <mxPoint x="210.5" y="45" />
            </Array>
            <mxPoint x="210.5" y="73.20000000000005" as="targetPoint" />
          </mxGeometry>
        </mxCell>
        <mxCell id="HNseLsLBakEeqUfx-rle-84" value="&lt;div&gt;LessonPreload&lt;/div&gt;" style="rounded=1;whiteSpace=wrap;html=1;glass=0;strokeWidth=1;shadow=0;fillColor=#d5e8d4;strokeColor=#82b366;" parent="HNseLsLBakEeqUfx-rle-82" vertex="1">
          <mxGeometry x="70.5" y="30" width="120" height="20" as="geometry" />
        </mxCell>
        <mxCell id="HNseLsLBakEeqUfx-rle-85" style="edgeStyle=orthogonalEdgeStyle;rounded=0;orthogonalLoop=1;jettySize=auto;html=1;exitX=1;exitY=0.5;exitDx=0;exitDy=0;" parent="HNseLsLBakEeqUfx-rle-82" source="HNseLsLBakEeqUfx-rle-86" edge="1">
          <mxGeometry relative="1" as="geometry">
            <mxPoint x="69.5" y="40" as="targetPoint" />
          </mxGeometry>
        </mxCell>
        <mxCell id="HNseLsLBakEeqUfx-rle-86" value="ReEnter" style="rounded=1;whiteSpace=wrap;html=1;glass=0;strokeWidth=1;shadow=0;fillColor=#d5e8d4;strokeColor=#82b366;" parent="HNseLsLBakEeqUfx-rle-82" vertex="1">
          <mxGeometry x="9.5" y="30" width="39" height="20" as="geometry" />
        </mxCell>
        <mxCell id="HNseLsLBakEeqUfx-rle-91" style="edgeStyle=orthogonalEdgeStyle;rounded=0;orthogonalLoop=1;jettySize=auto;html=1;entryX=0.5;entryY=0;entryDx=0;entryDy=0;exitX=1;exitY=0.5;exitDx=0;exitDy=0;" parent="WIyWlLk6GJQsqaUBKTNV-1" source="HNseLsLBakEeqUfx-rle-93" target="Xbszcy3RC4SYlAQT6yKl-6" edge="1">
          <mxGeometry relative="1" as="geometry" />
        </mxCell>
        <mxCell id="Xbszcy3RC4SYlAQT6yKl-4" value="True" style="edgeLabel;html=1;align=center;verticalAlign=middle;resizable=0;points=[];" parent="HNseLsLBakEeqUfx-rle-91" vertex="1" connectable="0">
          <mxGeometry x="-0.9108" y="2" relative="1" as="geometry">
            <mxPoint x="14" y="2" as="offset" />
          </mxGeometry>
        </mxCell>
        <mxCell id="Xbszcy3RC4SYlAQT6yKl-13" style="edgeStyle=orthogonalEdgeStyle;rounded=0;orthogonalLoop=1;jettySize=auto;html=1;" parent="WIyWlLk6GJQsqaUBKTNV-1" source="HNseLsLBakEeqUfx-rle-88" target="Xbszcy3RC4SYlAQT6yKl-12" edge="1">
          <mxGeometry relative="1" as="geometry" />
        </mxCell>
        <mxCell id="HNseLsLBakEeqUfx-rle-88" value="&lt;div&gt;PreloadState&lt;/div&gt;" style="rounded=1;whiteSpace=wrap;html=1;glass=0;strokeWidth=1;shadow=0;fillColor=#d5e8d4;strokeColor=#82b366;" parent="WIyWlLk6GJQsqaUBKTNV-1" vertex="1">
          <mxGeometry x="360" y="110" width="120" height="20" as="geometry" />
        </mxCell>
        <mxCell id="HNseLsLBakEeqUfx-rle-94" style="edgeStyle=orthogonalEdgeStyle;rounded=0;orthogonalLoop=1;jettySize=auto;html=1;entryX=0.5;entryY=0;entryDx=0;entryDy=0;" parent="WIyWlLk6GJQsqaUBKTNV-1" source="HNseLsLBakEeqUfx-rle-93" target="Xbszcy3RC4SYlAQT6yKl-23" edge="1">
          <mxGeometry relative="1" as="geometry">
            <mxPoint x="490" y="230" as="targetPoint" />
          </mxGeometry>
        </mxCell>
        <mxCell id="Xbszcy3RC4SYlAQT6yKl-3" value="False" style="edgeLabel;html=1;align=center;verticalAlign=middle;resizable=0;points=[];" parent="HNseLsLBakEeqUfx-rle-94" vertex="1" connectable="0">
          <mxGeometry x="-0.9036" y="-2" relative="1" as="geometry">
            <mxPoint x="-16" as="offset" />
          </mxGeometry>
        </mxCell>
        <mxCell id="HNseLsLBakEeqUfx-rle-93" value="No errors" style="rhombus;whiteSpace=wrap;html=1;" parent="WIyWlLk6GJQsqaUBKTNV-1" vertex="1">
          <mxGeometry x="571.25" y="250" width="80" height="80" as="geometry" />
        </mxCell>
        <mxCell id="Xbszcy3RC4SYlAQT6yKl-1" style="edgeStyle=orthogonalEdgeStyle;rounded=0;orthogonalLoop=1;jettySize=auto;html=1;exitX=0.5;exitY=1;exitDx=0;exitDy=0;" parent="WIyWlLk6GJQsqaUBKTNV-1" source="lwHccidv2fWYTVkOevZk-2" target="lwHccidv2fWYTVkOevZk-2" edge="1">
          <mxGeometry relative="1" as="geometry" />
        </mxCell>
        <mxCell id="Xbszcy3RC4SYlAQT6yKl-6" value="&lt;div style=&quot;line-height: 18px;&quot;&gt;next state&lt;/div&gt;" style="rounded=1;whiteSpace=wrap;html=1;fontSize=12;glass=0;strokeWidth=1;shadow=0;" parent="WIyWlLk6GJQsqaUBKTNV-1" vertex="1">
          <mxGeometry x="665" y="310" width="111" height="20" as="geometry" />
        </mxCell>
        <mxCell id="Xbszcy3RC4SYlAQT6yKl-8" value="&lt;div&gt;LobbyState&lt;/div&gt;" style="rounded=1;whiteSpace=wrap;html=1;glass=0;strokeWidth=1;shadow=0;fillColor=#fff2cc;strokeColor=#d6b656;" parent="WIyWlLk6GJQsqaUBKTNV-1" vertex="1">
          <mxGeometry x="691.75" y="330" width="120" height="20" as="geometry" />
        </mxCell>
        <mxCell id="Xbszcy3RC4SYlAQT6yKl-9" value="VocabularyState" style="rounded=1;whiteSpace=wrap;html=1;glass=0;strokeWidth=1;shadow=0;fillColor=#fff2cc;strokeColor=#d6b656;" parent="WIyWlLk6GJQsqaUBKTNV-1" vertex="1">
          <mxGeometry x="691.75" y="350" width="120" height="20" as="geometry" />
        </mxCell>
        <mxCell id="Xbszcy3RC4SYlAQT6yKl-10" value="&lt;div&gt;Lobby&lt;/div&gt;" style="rounded=0;whiteSpace=wrap;html=1;glass=0;strokeWidth=1;shadow=0;fillColor=#dae8fc;strokeColor=#6c8ebf;align=left;" parent="WIyWlLk6GJQsqaUBKTNV-1" vertex="1">
          <mxGeometry x="649" y="160" width="141" height="20" as="geometry" />
        </mxCell>
        <mxCell id="C5VVjoUgW46I6b7N3y8o-6" style="edgeStyle=orthogonalEdgeStyle;rounded=0;orthogonalLoop=1;jettySize=auto;html=1;" edge="1" parent="WIyWlLk6GJQsqaUBKTNV-1" source="Xbszcy3RC4SYlAQT6yKl-11" target="C5VVjoUgW46I6b7N3y8o-5">
          <mxGeometry relative="1" as="geometry" />
        </mxCell>
        <mxCell id="Xbszcy3RC4SYlAQT6yKl-11" value="PlayLesson" style="rounded=0;whiteSpace=wrap;html=1;glass=0;strokeWidth=1;shadow=0;fillColor=#dae8fc;strokeColor=#6c8ebf;align=left;" parent="WIyWlLk6GJQsqaUBKTNV-1" vertex="1">
          <mxGeometry x="649" y="180" width="141" height="20" as="geometry" />
        </mxCell>
        <mxCell id="Xbszcy3RC4SYlAQT6yKl-15" style="edgeStyle=orthogonalEdgeStyle;rounded=0;orthogonalLoop=1;jettySize=auto;html=1;exitX=0.5;exitY=1;exitDx=0;exitDy=0;entryX=0.5;entryY=0;entryDx=0;entryDy=0;" parent="WIyWlLk6GJQsqaUBKTNV-1" source="Xbszcy3RC4SYlAQT6yKl-12" target="HNseLsLBakEeqUfx-rle-93" edge="1">
          <mxGeometry relative="1" as="geometry" />
        </mxCell>
        <mxCell id="Xbszcy3RC4SYlAQT6yKl-12" value="&lt;div style=&quot;line-height: 18px;&quot;&gt;preload data for&lt;/div&gt;" style="rounded=0;whiteSpace=wrap;html=1;fontSize=12;glass=0;strokeWidth=1;shadow=0;" parent="WIyWlLk6GJQsqaUBKTNV-1" vertex="1">
          <mxGeometry x="555.75" y="140" width="111" height="20" as="geometry" />
        </mxCell>
        <mxCell id="Xbszcy3RC4SYlAQT6yKl-18" value="&lt;div&gt;PreloadState&lt;/div&gt;" style="rounded=1;whiteSpace=wrap;html=1;glass=0;strokeWidth=1;shadow=0;fillColor=#fff2cc;strokeColor=#d6b656;" parent="WIyWlLk6GJQsqaUBKTNV-1" vertex="1">
          <mxGeometry x="545" y="760" width="120" height="20" as="geometry" />
        </mxCell>
        <mxCell id="C5VVjoUgW46I6b7N3y8o-14" style="edgeStyle=orthogonalEdgeStyle;rounded=0;orthogonalLoop=1;jettySize=auto;html=1;entryX=0.5;entryY=0;entryDx=0;entryDy=0;" edge="1" parent="WIyWlLk6GJQsqaUBKTNV-1" source="Xbszcy3RC4SYlAQT6yKl-19" target="C5VVjoUgW46I6b7N3y8o-2">
          <mxGeometry relative="1" as="geometry" />
        </mxCell>
        <mxCell id="Xbszcy3RC4SYlAQT6yKl-19" value="&lt;div style=&quot;line-height: 18px;&quot;&gt;RepetitionTabController&lt;/div&gt;" style="rounded=1;whiteSpace=wrap;html=1;fontSize=12;glass=0;strokeWidth=1;shadow=0;" parent="WIyWlLk6GJQsqaUBKTNV-1" vertex="1">
          <mxGeometry x="623.38" y="490" width="139" height="20" as="geometry" />
        </mxCell>
        <mxCell id="Xbszcy3RC4SYlAQT6yKl-22" value="&lt;div&gt;PreloadState&lt;/div&gt;" style="rounded=1;whiteSpace=wrap;html=1;glass=0;strokeWidth=1;shadow=0;fillColor=#fff2cc;strokeColor=#d6b656;" parent="WIyWlLk6GJQsqaUBKTNV-1" vertex="1">
          <mxGeometry x="440.25" y="350" width="120" height="20" as="geometry" />
        </mxCell>
        <mxCell id="Xbszcy3RC4SYlAQT6yKl-24" style="edgeStyle=orthogonalEdgeStyle;rounded=0;orthogonalLoop=1;jettySize=auto;html=1;entryX=0.5;entryY=0;entryDx=0;entryDy=0;" parent="WIyWlLk6GJQsqaUBKTNV-1" source="Xbszcy3RC4SYlAQT6yKl-23" target="Xbszcy3RC4SYlAQT6yKl-22" edge="1">
          <mxGeometry relative="1" as="geometry" />
        </mxCell>
        <mxCell id="Xbszcy3RC4SYlAQT6yKl-23" value="&lt;div style=&quot;line-height: 18px;&quot;&gt;show error&lt;/div&gt;" style="rounded=0;whiteSpace=wrap;html=1;fontSize=12;glass=0;strokeWidth=1;shadow=0;" parent="WIyWlLk6GJQsqaUBKTNV-1" vertex="1">
          <mxGeometry x="444.75" y="310" width="111" height="20" as="geometry" />
        </mxCell>
        <mxCell id="Xbszcy3RC4SYlAQT6yKl-27" value="&lt;b&gt;WIP&lt;/b&gt;" style="text;html=1;align=center;verticalAlign=middle;whiteSpace=wrap;rounded=0;" parent="WIyWlLk6GJQsqaUBKTNV-1" vertex="1">
          <mxGeometry x="776" y="930" width="60" height="30" as="geometry" />
        </mxCell>
        <mxCell id="C5VVjoUgW46I6b7N3y8o-15" style="edgeStyle=orthogonalEdgeStyle;rounded=0;orthogonalLoop=1;jettySize=auto;html=1;" edge="1" parent="WIyWlLk6GJQsqaUBKTNV-1" source="C5VVjoUgW46I6b7N3y8o-2" target="Xbszcy3RC4SYlAQT6yKl-18">
          <mxGeometry relative="1" as="geometry" />
        </mxCell>
        <mxCell id="C5VVjoUgW46I6b7N3y8o-2" value="&lt;font style=&quot;font-size: 12px;&quot;&gt;on generalRepetition&amp;nbsp; btn&lt;br&gt;&lt;b&gt;repeatService.GenerateGeneral&lt;/b&gt;&lt;br&gt;&lt;/font&gt;gameBus.NextState = Repetition&lt;br&gt;&lt;div&gt;gameBus.PreloadFor = QuestConfigs&lt;/div&gt;" style="rounded=0;whiteSpace=wrap;html=1;align=left;" vertex="1" parent="WIyWlLk6GJQsqaUBKTNV-1">
          <mxGeometry x="603.19" y="540" width="232.62" height="100" as="geometry" />
        </mxCell>
        <mxCell id="C5VVjoUgW46I6b7N3y8o-4" value="PlayQuestions(repetition)" style="rounded=0;whiteSpace=wrap;html=1;glass=0;strokeWidth=1;shadow=0;fillColor=#dae8fc;strokeColor=#6c8ebf;align=left;" vertex="1" parent="WIyWlLk6GJQsqaUBKTNV-1">
          <mxGeometry x="649" y="200" width="141" height="20" as="geometry" />
        </mxCell>
        <mxCell id="C5VVjoUgW46I6b7N3y8o-5" value="&lt;div style=&quot;line-height: 18px;&quot;&gt;&lt;span style=&quot;background-color: rgb(255, 255, 255); font-size: 11px; text-wrap-mode: nowrap;&quot;&gt;&lt;b&gt;await&amp;nbsp;&lt;/b&gt;&lt;/span&gt;preload lesson config&lt;/div&gt;" style="rounded=0;whiteSpace=wrap;html=1;fontSize=12;glass=0;strokeWidth=1;shadow=0;" vertex="1" parent="WIyWlLk6GJQsqaUBKTNV-1">
          <mxGeometry x="820" y="180" width="200" height="20" as="geometry" />
        </mxCell>
        <mxCell id="C5VVjoUgW46I6b7N3y8o-7" value="&lt;div style=&quot;line-height: 18px;&quot;&gt;&lt;b style=&quot;background-color: initial; text-wrap-mode: nowrap; font-size: 11px;&quot;&gt;await&amp;nbsp;&amp;nbsp;&lt;/b&gt;preload questions config&lt;/div&gt;" style="rounded=0;whiteSpace=wrap;html=1;fontSize=12;glass=0;strokeWidth=1;shadow=0;" vertex="1" parent="WIyWlLk6GJQsqaUBKTNV-1">
          <mxGeometry x="819.5" y="200" width="200.5" height="20" as="geometry" />
        </mxCell>
        <mxCell id="C5VVjoUgW46I6b7N3y8o-8" style="edgeStyle=orthogonalEdgeStyle;rounded=0;orthogonalLoop=1;jettySize=auto;html=1;" edge="1" target="C5VVjoUgW46I6b7N3y8o-7" parent="WIyWlLk6GJQsqaUBKTNV-1">
          <mxGeometry relative="1" as="geometry">
            <mxPoint x="789.5" y="210" as="sourcePoint" />
          </mxGeometry>
        </mxCell>
        <mxCell id="C5VVjoUgW46I6b7N3y8o-12" value="" style="edgeStyle=orthogonalEdgeStyle;rounded=0;orthogonalLoop=1;jettySize=auto;html=1;" edge="1" parent="WIyWlLk6GJQsqaUBKTNV-1" source="lwHccidv2fWYTVkOevZk-39" target="C5VVjoUgW46I6b7N3y8o-11">
          <mxGeometry relative="1" as="geometry">
            <mxPoint x="480" y="420" as="sourcePoint" />
            <mxPoint x="932" y="470" as="targetPoint" />
          </mxGeometry>
        </mxCell>
        <mxCell id="C5VVjoUgW46I6b7N3y8o-11" value="currentTab" style="shape=parallelogram;perimeter=parallelogramPerimeter;whiteSpace=wrap;html=1;fixedSize=1;" vertex="1" parent="WIyWlLk6GJQsqaUBKTNV-1">
          <mxGeometry x="555" y="390" width="120" height="60" as="geometry" />
        </mxCell>
      </root>
    </mxGraphModel>
  </diagram>
</mxfile>
